<?xml version="1.0" encoding="utf-8"?>
<!-- Generator: Adobe Illustrator 19.0.0, SVG Export Plug-In . SVG Version: 6.00 Build 0)  -->
<svg version="1.1" id="Layer_1" xmlns="http://www.w3.org/2000/svg" xmlns:xlink="http://www.w3.org/1999/xlink" x="0px" y="0px"
	 viewBox="0 0 500 500" style="enable-background:new 0 0 500 500;" xml:space="preserve">
<style type="text/css">
	.st0{fill:#FFFFFF;}
	.st1{fill:#050505;}
	.st2{fill-rule:evenodd;clip-rule:evenodd;fill:#050505;}
	.st3{fill-rule:evenodd;clip-rule:evenodd;fill:#D32323;}
</style>
<g id="XMLID_1_">
	<path id="XMLID_15_" class="st0" d="M418.2,255.7l-0.6-0.2c0,0,9-1.9,13.1-10.7c2.4-5.2,2.5-11.1,0.3-16.3
		c-3.9-8.9-9.5-16.6-16.8-23.1c-3.6-3.2-8.2-4.9-13-4.9c-11.7-0.1-16.8,9.3-16.8,9.3l0-32.2c0-10.9-8.7-19.7-19.7-19.7
		c-4.7,0-13.4,1.5-19.1,3.1c-5.8,1.5-11.4,3.6-16.8,6.2c-4.9,2.4-8.7,6.7-10.3,12c-1.6,5.2-1,11,1.8,15.7l16.1,27.9
		c0,0-3.9-2.3-9.3-2.3c-8.5,0-16,5.4-18.7,13.4c-0.2,0.6-0.4,1.2-0.6,1.8c-2.6-2.5-5.7-4.7-9.5-6.5c-5.1-2.4-10.9-3.7-16.7-3.7
		c-4.4,0-8.7,0.7-12.7,2.2c-3-1.6-6.4-2.4-9.9-2.4c-5,0-9.7,1.8-13.3,4.7v-3.9c0-11.7-9.5-21.2-21.2-21.2
		c-11.7,0-21.2,9.5-21.2,21.2v11.7c-8-8.4-18.7-11.8-28.3-11.8c-7.2,0-16.8,2.3-24.9,9c-2.7-3.8-6.6-6.6-11.1-8
		c-2.1-0.6-4.2-1-6.3-1c-9.5,0-17.7,6.1-20.5,15.1l-0.9,2.9l-2.9-6c-3.9-8.6-16.1-15.9-28.7-9.9c-5.2,2.5-9,6.9-10.9,12.3
		c-1.9,5.4-1.5,11.2,1,16.4L90,298.4c-6,2.4-10.5,7.2-12.4,13.8c-1.8,6.3-0.7,12.9,3.1,18c3,4,8.8,8.9,19.9,9.2c0.4,0,0.8,0,1.2,0
		c15.5,0,26.8-7.7,31.1-21c1.8-5.5,3.8-11.9,5.9-18.6c0.4,0.9,0.8,1.7,1.2,2.5c6.7,12.7,18.9,19.7,34.5,19.7
		c14.6,0,24.9-4.9,31.2-11.4c3.6,6.6,10.6,11.2,18.7,11.2c5,0,9.7-1.8,13.3-4.7v3.9c0,11.7,9.5,21.2,21.2,21.2
		c11.5,0,20.9-9.2,21.2-20.7c0.1,0,16.7,0.9,27.6-10.7c1.1-1.2,3.1-3.3,5.2-6.7c2.6,1.4,5.6,2.2,8.8,2.2c2.6,0,5-0.5,7.2-1.5
		c1.2,1.6,2.7,2.9,4.4,4.1c7.9,5.4,17,9.1,26.4,10.7c1.1,0.2,2.2,0.3,3.3,0.3c10.7,0,19.4-8.4,19.7-19.1l0-0.7l0.4,0.6
		c3.6,5.8,9.9,9.3,16.8,9.3c4.6,0,9-1.6,12.6-4.5c7.3-6.1,13.4-13.8,17.5-22.4c2.4-5.1,2.6-11.1,0.3-16.3
		C428,261.5,423.6,257.5,418.2,255.7z"/>
	<path id="XMLID_20_" class="st1" d="M321.7,284.6c2.3,0,4.2,1.8,4.2,4.1c0,2.4-1.9,4.2-4.2,4.2c-2.3,0-4.2-1.8-4.2-4.1
		C317.5,286.4,319.5,284.6,321.7,284.6z M321.7,292.4c2,0,3.5-1.5,3.5-3.6c0-2-1.6-3.5-3.5-3.5c-2,0-3.5,1.5-3.5,3.6
		C318.2,290.8,319.8,292.4,321.7,292.4z M320.2,286.4h1.8c1.2,0,1.7,0.4,1.7,1.4c0,0.9-0.6,1.2-1.3,1.3l1.4,2.1H323l-1.3-2.1h-0.9
		v2.1h-0.7V286.4z M320.9,288.6h0.8c0.7,0,1.3,0,1.3-0.8c0-0.7-0.6-0.8-1.1-0.8h-1V288.6z"/>
	<path id="XMLID_21_" class="st2" d="M231.9,300.5c0,4.1-3.4,7.5-7.5,7.5c-4.1,0-7.5-3.4-7.5-7.5v-74.6c0-4.1,3.4-7.5,7.5-7.5
		c4.1,0,7.5,3.4,7.5,7.5V300.5z"/>
	<path id="XMLID_24_" class="st1" d="M167,279.7l26.9,0c0.2,0,0.4,0,0.6,0c3.7-0.3,7.3-3.4,7.3-8.3l0,0l0-0.4
		c-1.3-27.4-18.9-31.3-26.9-31.3c-8.3,0-27.1,4.9-27.1,35.3c0.1,11.4,2.6,33.3,26.7,33.3c20.8,0,25.5-12,25.5-15.1
		c0-4.5-3.8-8.4-8-6.9c-3.5,1.2-8.2,8-15.8,8c-10.9,0-12.3-10-12.3-12.1C163.8,280.4,164.7,279.7,167,279.7z M163.7,266.3
		c0.5-10.4,8.3-12.1,11.9-12.1c3.5,0,11.4,1.7,11.8,12.2c0,0.6-0.3,0.9-0.6,0.9h-22.4C164,267.3,163.7,266.9,163.7,266.3z"/>
	<path id="XMLID_25_" class="st1" d="M105.5,298.7l-23.4-48c-1.9-3.8-0.3-8.4,3.5-10.3c3.8-1.9,8.4-0.3,10.3,3.5l18.1,37.2
		l11.2-36.1c1.3-4.1,5.6-6.3,9.6-5.1c4.1,1.3,6.3,5.6,5.1,9.6c0,0-12.5,41-20.1,64.6c-2.5,7.8-9,11.7-18.8,11.4
		c-9.7-0.2-11.2-5.9-10.1-9.7c1.2-4.1,4.6-5.4,8-5.4C107.6,310.6,108.8,305.3,105.5,298.7z"/>
	<path id="XMLID_28_" class="st1" d="M306,270.7c0-9.8-1.2-23.3-13.6-29.2c-7-3.3-15.6-3.3-22.3,0.6c-1.3,0.8-2.7,1.6-3.8,2.5
		c-0.8-3.3-3.7-5.7-7.3-5.7c-4.1,0-7.5,3.4-7.5,7.5v74.6c0,4.1,3.4,7.5,7.5,7.5c4.1,0,7.5-3.4,7.5-7.5v-19.6c0,0,5,6.2,13.1,6.4
		C308,308.5,306.1,277.5,306,270.7z M291.1,276.4c0,5.9,0,16.6-10.8,16.6c-10.8,0-10.8-10.6-10.8-16.6V271c0-5.9,0-16.6,10.8-16.6
		c10.8,0,10.8,10.6,10.8,16.6V276.4z"/>
	<path id="XMLID_29_" class="st3" d="M329.6,234.7l26.2,12.8c5,2.5,4.3,9.9-1.2,11.2l-28.3,7c-3.5,0.9-7-1.6-7.4-5.2
		c-0.9-7.7,0-15.3,2.4-22.4C322.4,234.7,326.3,233.1,329.6,234.7z"/>
	<path id="XMLID_30_" class="st3" d="M340.1,288.6l19.5-21.6c3.7-4.2,10.7-1.4,10.5,4.2l-1,29.1c-0.1,3.6-3.4,6.3-7,5.7
		c-7.5-1.3-14.7-4.2-20.9-8.4C338.1,295.5,337.6,291.3,340.1,288.6z"/>
	<path id="XMLID_31_" class="st3" d="M386.3,259.8l27.7,9c3.4,1.1,5.1,5,3.6,8.3c-3.2,6.8-8,12.9-13.9,17.7c-2.8,2.3-7,1.6-8.9-1.4
		l-15.4-24.7C376.4,263.9,380.9,258.1,386.3,259.8z"/>
	<path id="XMLID_32_" class="st3" d="M414.4,242.1l-28,8c-5.4,1.5-9.8-4.5-6.6-9.1l16.3-24.1c2-3,6.2-3.6,8.9-1.2
		c5.6,4.9,10.2,11.1,13.2,18.2C419.7,237.3,417.9,241.1,414.4,242.1z"/>
	<path id="XMLID_33_" class="st3" d="M349,174.2c-5,1.4-9.8,3.1-14.4,5.3c-3.2,1.5-4.3,5.4-2.6,8.4l27.4,47.4
		c3.1,5.3,11.2,3.1,11.2-3l0-54.7c0-3.5-3-6.3-6.5-6C359.1,172,354.1,172.8,349,174.2z"/>
</g>
</svg>
